<?xml version="1.0" encoding="utf-8"?>
<!-- Generator: Adobe Illustrator 15.1.0, SVG Export Plug-In . SVG Version: 6.00 Build 0)  -->
<!DOCTYPE svg PUBLIC "-//W3C//DTD SVG 1.1//EN" "http://www.w3.org/Graphics/SVG/1.1/DTD/svg11.dtd">
<svg version="1.1" id="Ebene_1" xmlns="http://www.w3.org/2000/svg" xmlns:xlink="http://www.w3.org/1999/xlink" x="0px" y="0px"
	 width="60px" height="60px" viewBox="0 0 60 60" enable-background="new 0 0 60 60" xml:space="preserve">
<g>
	<path fill="#00ACD6" d="M30,0C13.458,0,0,13.458,0,30s13.458,30,30,30s30-13.458,30-30S46.542,0,30,0z M30,58
		C14.561,58,2,45.439,2,30S14.561,2,30,2s28,12.561,28,28S45.439,58,30,58z"/>
	<path fill="#00ACD6" d="M15,41.25h30v-22.5H15V41.25z M17,39.25V22.148l13,12.709l13-12.709V39.25H17z M18.431,20.75h23.139
		L30,32.061L18.431,20.75z"/>
</g>
<line fill="none" stroke="#00ACD6" stroke-width="2" x1="24.919" y1="29.622" x2="16.663" y2="39.351"/>
<line fill="none" stroke="#00ACD6" stroke-width="2" x1="35.081" y1="29.622" x2="43.337" y2="39.351"/>
</svg>
