<?xml version="1.0" encoding="utf-8"?>
<!-- Generator: Adobe Illustrator 15.1.0, SVG Export Plug-In . SVG Version: 6.00 Build 0)  -->
<!DOCTYPE svg PUBLIC "-//W3C//DTD SVG 1.1//EN" "http://www.w3.org/Graphics/SVG/1.1/DTD/svg11.dtd">
<svg version="1.1" id="Ebene_1" xmlns="http://www.w3.org/2000/svg" xmlns:xlink="http://www.w3.org/1999/xlink" x="0px" y="0px"
	 width="60px" height="60px" viewBox="0 0 60 60" enable-background="new 0 0 60 60" xml:space="preserve">
<g>
	<g>
		<g>
			<path fill="#00ABD5" d="M30,60C13.458,60,0,46.542,0,30S13.458,0,30,0s30,13.458,30,30S46.542,60,30,60z M30,2
				C14.561,2,2,14.561,2,30s12.561,28,28,28s28-12.561,28-28S45.439,2,30,2z"/>
		</g>
		<g>
			<g>
				<defs>
					<rect id="SVGID_1_" x="5.285" y="8.494" width="46.221" height="46.221"/>
				</defs>
				<clipPath id="SVGID_2_">
					<use xlink:href="#SVGID_1_"  overflow="visible"/>
				</clipPath>
				<g clip-path="url(#SVGID_2_)">
					<path fill="#00ABD5" d="M34.49,43.021c-3.61,0-7.471-2.031-11.476-6.036c-4.623-4.622-6.607-9.017-5.899-13.063
						c0.666-3.805,3.513-5.927,4.457-6.37c0.625-0.372,1.265-0.574,1.874-0.574c1.909,0,2.774,1.849,3.689,3.807
						c0.207,0.442,0.425,0.908,0.666,1.382c1.236,2.429-0.309,3.764-1.232,4.561c-0.728,0.629-0.882,0.834-0.821,1.101
						c0.119,0.35,1.193,1.805,2.886,3.564c1.733,1.667,3.189,2.743,3.563,2.868c0.015,0.003,0.052,0.007,0.085,0.007
						c0.268,0,0.635-0.425,0.989-0.835c0.615-0.713,1.458-1.689,2.853-1.689c0.547,0,1.105,0.148,1.708,0.455
						c0.476,0.242,0.942,0.46,1.386,0.668c1.746,0.816,3.254,1.521,3.689,2.926c0.255,0.818,0.09,1.707-0.503,2.717
						C41.992,39.397,39.309,43.021,34.49,43.021z M23.446,18.979c-0.165,0-0.461,0.06-0.942,0.342
						c-0.617,0.294-2.895,1.957-3.418,4.947c-0.581,3.318,1.267,7.228,5.343,11.304c3.616,3.616,7.001,5.45,10.062,5.45
						c3.726,0,5.826-2.761,6.146-3.444c0.241-0.418,0.456-0.884,0.36-1.192c-0.174-0.56-1.421-1.144-2.627-1.707
						c-0.463-0.217-0.949-0.444-1.444-0.696c-0.954-0.484-1.35-0.159-2.141,0.758c-0.588,0.681-1.319,1.528-2.503,1.528
						c-0.181,0-0.366-0.021-0.552-0.062c-1.231-0.287-3.973-2.882-4.51-3.398c-0.544-0.564-3.138-3.306-3.422-4.531
						c-0.34-1.503,0.703-2.403,1.463-3.061c0.974-0.842,1.259-1.155,0.757-2.14c-0.251-0.495-0.479-0.98-0.695-1.442
						C24.658,20.208,24.083,18.979,23.446,18.979z"/>
				</g>
			</g>
		</g>
	</g>
</g>
</svg>
