<?xml version="1.0" encoding="utf-8"?>
<!-- Generator: Adobe Illustrator 15.1.0, SVG Export Plug-In . SVG Version: 6.00 Build 0)  -->
<!DOCTYPE svg PUBLIC "-//W3C//DTD SVG 1.1//EN" "http://www.w3.org/Graphics/SVG/1.1/DTD/svg11.dtd">
<svg version="1.1" id="Ebene_1" xmlns="http://www.w3.org/2000/svg" xmlns:xlink="http://www.w3.org/1999/xlink" x="0px" y="0px"
	 width="40px" height="60px" viewBox="0 0 40 60" enable-background="new 0 0 40 60" xml:space="preserve">
<g>
	<path fill="#00ACD6" d="M19.973,13.016c-4.136,0-7.5,3.364-7.5,7.5s3.364,7.5,7.5,7.5s7.5-3.364,7.5-7.5
		S24.108,13.016,19.973,13.016z M19.973,26.016c-3.033,0-5.5-2.467-5.5-5.5s2.467-5.5,5.5-5.5c3.032,0,5.5,2.467,5.5,5.5
		S23.005,26.016,19.973,26.016z"/>
	<path fill="#00ACD6" d="M19.973,0c-11.033,0.029-20,9.013-20,20.052c0,2.486,0.45,4.915,1.339,7.219
		c0.276,0.717,0.62,1.455,1.049,2.255L19.973,59.98l17.612-30.455c0.43-0.8,0.773-1.538,1.05-2.255
		c0.89-2.304,1.338-4.732,1.338-7.219C39.973,9.013,31.005,0.029,19.973,0z M36.759,26.546c-0.247,0.639-0.557,1.303-0.93,2.001
		L19.973,55.965L4.116,28.547c-0.373-0.698-0.682-1.362-0.93-2.001c-0.798-2.071-1.203-4.256-1.203-6.495
		c0-9.931,8.065-18.011,17.989-18.041c9.925,0.029,17.989,8.11,17.989,18.041C37.962,22.29,37.558,24.476,36.759,26.546z"/>
</g>
</svg>
