<?xml version="1.0" encoding="utf-8"?>
<!-- Generator: Adobe Illustrator 15.1.0, SVG Export Plug-In . SVG Version: 6.00 Build 0)  -->
<!DOCTYPE svg PUBLIC "-//W3C//DTD SVG 1.1//EN" "http://www.w3.org/Graphics/SVG/1.1/DTD/svg11.dtd">
<svg version="1.1" id="Ebene_1" xmlns="http://www.w3.org/2000/svg" xmlns:xlink="http://www.w3.org/1999/xlink" x="0px" y="0px"
	 width="45px" height="45px" viewBox="0 0 45 45" enable-background="new 0 0 45 45" xml:space="preserve">
<g>
	<g>
		<path fill="#00ACD6" d="M22.5,45C10.093,45,0,34.906,0,22.5C0,10.093,10.093,0,22.5,0C34.906,0,45,10.093,45,22.5
			C45,34.906,34.906,45,22.5,45z M22.5,2C11.196,2,2,11.196,2,22.5S11.196,43,22.5,43S43,33.804,43,22.5S33.804,2,22.5,2z"/>
	</g>
</g>
<g>
	<polygon fill="#00ACD6" points="19.537,30.116 13.814,25.291 15.103,23.762 19.29,27.292 29.651,14.883 31.187,16.166 	"/>
</g>
</svg>
