<?xml version="1.0" encoding="utf-8"?>
<!-- Generator: Adobe Illustrator 15.1.0, SVG Export Plug-In . SVG Version: 6.00 Build 0)  -->
<!DOCTYPE svg PUBLIC "-//W3C//DTD SVG 1.1//EN" "http://www.w3.org/Graphics/SVG/1.1/DTD/svg11.dtd">
<svg version="1.1" id="Ebene_1" xmlns="http://www.w3.org/2000/svg" xmlns:xlink="http://www.w3.org/1999/xlink" x="0px" y="0px"
	 width="13px" height="13px" viewBox="0 0 13 13" enable-background="new 0 0 13 13" xml:space="preserve">
<g>
	<g>
		<path fill="#00323C" d="M8.809,12.947c-1.79,0-3.717-1.019-5.726-3.028C0.76,7.598-0.235,5.403,0.123,3.399
			c0.33-1.845,1.708-2.86,2.165-3.07C2.589,0.151,2.901,0.054,3.2,0.054c0.948,0,1.385,0.919,1.848,1.891
			c0.104,0.219,0.213,0.449,0.334,0.683C6.004,3.835,5.244,4.489,4.79,4.88C4.438,5.184,4.368,5.277,4.398,5.404
			c0.06,0.173,0.598,0.897,1.441,1.772c0.862,0.83,1.585,1.367,1.771,1.431c0.212,0.017,0.343-0.2,0.512-0.396
			C8.42,7.863,8.83,7.387,9.515,7.387c0.274,0,0.555,0.076,0.858,0.232c0.234,0.121,0.465,0.23,0.684,0.335
			c0.868,0.412,1.618,0.77,1.834,1.468c0.125,0.404,0.046,0.84-0.24,1.333C12.455,11.185,11.163,12.947,8.809,12.947z M3.2,1.054
			c-0.114,0-0.27,0.056-0.452,0.162C2.451,1.354,1.364,2.14,1.107,3.575c-0.293,1.64,0.634,3.589,2.681,5.636
			c1.815,1.815,3.504,2.736,5.02,2.736c1.813,0,2.83-1.381,2.955-1.652c0.116-0.204,0.218-0.428,0.172-0.577
			c-0.087-0.28-0.708-0.575-1.309-0.861c-0.228-0.108-0.469-0.223-0.713-0.349C9.451,8.271,9.262,8.417,8.879,8.863
			C8.547,9.25,8.059,9.737,7.367,9.576C6.761,9.43,5.399,8.14,5.132,7.883C4.862,7.603,3.571,6.24,3.425,5.636
			C3.249,4.888,3.784,4.427,4.137,4.123C4.605,3.72,4.742,3.569,4.493,3.086c-0.126-0.244-0.24-0.484-0.349-0.712
			C3.807,1.666,3.516,1.054,3.2,1.054z"/>
	</g>
</g>
</svg>
