<?xml version="1.0" encoding="utf-8"?>
<!-- Generator: Adobe Illustrator 26.5.2, SVG Export Plug-In . SVG Version: 6.00 Build 0)  -->
<svg version="1.1" id="Ebene_1" xmlns="http://www.w3.org/2000/svg" xmlns:xlink="http://www.w3.org/1999/xlink" x="0px" y="0px"
	 viewBox="0 0 42.5 42.5" style="enable-background:new 0 0 42.5 42.5;" xml:space="preserve">
<style type="text/css">
	.st0{fill:none;}
	.st1{fill:none;stroke:#67ABCF;stroke-width:2.126;}
	.st2{enable-background:new    ;}
	.st3{fill:#4CADD3;}
</style>
<g id="Gruppe_1278" transform="translate(-547 -1928)">
	<g id="Ellipse_4" transform="translate(547 1928)">
		<circle class="st0" cx="21.3" cy="21.3" r="21.3"/>
		<circle class="st1" cx="21.3" cy="21.3" r="20.2"/>
	</g>
	<g class="st2">
		<path class="st3" d="M569.3,1948c2.5,0.2,4.2,1.7,4.2,4c0,2.8-2.1,4.7-5.4,4.7c-1.8,0-3.7-0.6-5-1.6l1-2c1.1,1,2.4,1.6,3.8,1.6
			c2,0,3.1-1,3.1-2.6c0-1.6-1.2-2.4-3.1-2.4h-2.1v-1.5l3.9-4.2h-6v-2.2h9.1v1.6l-4.3,4.6L569.3,1948z"/>
	</g>
</g>
</svg>
