<?xml version="1.0" encoding="utf-8"?>
<!-- Generator: Adobe Illustrator 15.1.0, SVG Export Plug-In . SVG Version: 6.00 Build 0)  -->
<!DOCTYPE svg PUBLIC "-//W3C//DTD SVG 1.1//EN" "http://www.w3.org/Graphics/SVG/1.1/DTD/svg11.dtd">
<svg version="1.1" id="Ebene_1" xmlns="http://www.w3.org/2000/svg" xmlns:xlink="http://www.w3.org/1999/xlink" x="0px" y="0px"
	 width="55px" height="55px" viewBox="0 0 55 55" enable-background="new 0 0 55 55" xml:space="preserve">
<g>
	<path fill="#FFFFFF" d="M27.5,0C12.312,0,0,12.312,0,27.5C0,42.688,12.312,55,27.5,55C42.688,55,55,42.688,55,27.5
		C55,12.312,42.688,0,27.5,0z M27.5,52.708c-13.922,0-25.208-11.286-25.208-25.208S13.578,2.292,27.5,2.292
		S52.708,13.578,52.708,27.5S41.422,52.708,27.5,52.708z"/>
	<path fill="#FFFFFF" d="M27.479,29.19h8.072v2.705c0,2.578-0.508,4.311-1.817,5.959c-1.564,1.902-3.889,2.916-6.255,2.916
		c-2.156,0-4.184-0.803-5.706-2.324c-2.155-2.156-2.324-4.521-2.324-10.946s0.169-8.791,2.324-10.946
		c1.522-1.522,3.55-2.325,5.706-2.325c4.057,0,7.1,2.578,7.986,6.762h2.282C36.861,15.708,32.72,12.2,27.479,12.2
		c-2.874,0-5.537,1.099-7.523,3.086c-2.747,2.747-2.79,5.409-2.79,12.214c0,6.762,0.043,9.466,2.79,12.214
		c1.986,1.985,4.649,3.085,7.523,3.085c3.043,0,5.916-1.269,7.902-3.467c1.817-1.901,2.451-4.099,2.451-7.269v-4.902H27.479V29.19z"
		/>
</g>
</svg>
