<?xml version="1.0" encoding="utf-8"?>
<!-- Generator: Adobe Illustrator 15.1.0, SVG Export Plug-In . SVG Version: 6.00 Build 0)  -->
<!DOCTYPE svg PUBLIC "-//W3C//DTD SVG 1.1//EN" "http://www.w3.org/Graphics/SVG/1.1/DTD/svg11.dtd">
<svg version="1.1" id="Ebene_1" xmlns="http://www.w3.org/2000/svg" xmlns:xlink="http://www.w3.org/1999/xlink" x="0px" y="0px"
	 width="150px" height="150px" viewBox="0 0 150 150" enable-background="new 0 0 150 150" xml:space="preserve">
<g>
	<path fill="#00ACD6" d="M75,150c41.421,0,75-33.579,75-75S116.421,0,75,0S0,33.579,0,75S33.579,150,75,150"/>
	<path fill="#FFFFFF" d="M117.456,101.393c-0.769-0.634-1.846-0.952-3.232-0.952c-0.846,0-1.652,0.132-2.417,0.396
		c-0.765,0.263-1.44,0.626-2.026,1.089l0.82,1.093c0.709-0.455,1.341-0.768,1.895-0.938c0.554-0.169,1.143-0.254,1.768-0.254
		c0.82,0,1.47,0.199,1.948,0.597c0.479,0.396,0.718,0.943,0.718,1.64c0,0.873-0.326,1.555-0.977,2.046
		c-0.651,0.492-1.533,0.737-2.646,0.737h-1.426v1.396h1.406c2.722,0,4.083,0.866,4.083,2.599c0,1.933-1.234,2.899-3.702,2.899
		c-0.625,0-1.287-0.08-1.987-0.238c-0.7-0.16-1.359-0.393-1.978-0.699v1.543c0.593,0.287,1.202,0.487,1.831,0.601
		c0.629,0.114,1.319,0.171,2.075,0.171c1.738,0,3.079-0.365,4.023-1.099c0.944-0.732,1.416-1.779,1.416-3.139
		c0-0.951-0.277-1.72-0.83-2.306s-1.403-0.951-2.549-1.094v-0.078c0.938-0.194,1.662-0.582,2.173-1.162
		c0.511-0.579,0.767-1.325,0.767-2.235C118.608,102.898,118.225,102.027,117.456,101.393 M101.929,114.924l5.84-12.979v-1.299
		h-9.502v1.494h7.783l-5.918,12.784H101.929z M88.35,102.341c0.472,0.387,0.708,0.908,0.708,1.566c0,0.6-0.194,1.123-0.581,1.572
		c-0.388,0.449-1.047,0.869-1.978,1.26c-1.035-0.43-1.744-0.858-2.129-1.289c-0.385-0.43-0.576-0.943-0.576-1.543
		c0-0.65,0.23-1.172,0.693-1.562c0.462-0.391,1.101-0.585,1.914-0.585C87.228,101.76,87.878,101.952,88.35,102.341 M83.989,109.509
		c0.437-0.505,1.14-0.966,2.109-1.382c1.263,0.462,2.148,0.938,2.656,1.43c0.508,0.492,0.762,1.054,0.762,1.685
		c0,0.794-0.27,1.419-0.811,1.875c-0.54,0.456-1.295,0.685-2.266,0.685c-0.982,0-1.747-0.219-2.29-0.655
		c-0.544-0.436-0.815-1.045-0.815-1.826C83.335,110.616,83.553,110.013,83.989,109.509 M83.35,101.363
		c-0.765,0.615-1.147,1.44-1.147,2.477c0,0.729,0.195,1.388,0.586,1.977s1.035,1.138,1.934,1.646
		c-1.992,0.91-2.988,2.184-2.988,3.817c0,1.225,0.41,2.17,1.23,2.837c0.821,0.667,1.992,1.001,3.516,1.001
		c1.439,0,2.571-0.353,3.398-1.06c0.827-0.706,1.241-1.652,1.241-2.837c0-0.8-0.245-1.505-0.733-2.114
		c-0.488-0.608-1.312-1.189-2.471-1.743c0.957-0.475,1.653-1.002,2.09-1.582c0.436-0.579,0.655-1.221,0.655-1.924
		c0-1.067-0.382-1.904-1.144-2.51s-1.794-0.908-3.096-0.908C85.139,100.44,84.114,100.748,83.35,101.363 M77.954,101.393
		c-0.769-0.634-1.846-0.952-3.232-0.952c-0.846,0-1.652,0.132-2.417,0.396c-0.765,0.263-1.44,0.626-2.026,1.089l0.82,1.093
		c0.71-0.455,1.341-0.768,1.895-0.938c0.553-0.169,1.142-0.254,1.767-0.254c0.82,0,1.47,0.199,1.948,0.597
		c0.479,0.396,0.718,0.943,0.718,1.64c0,0.873-0.326,1.555-0.976,2.046c-0.652,0.492-1.535,0.737-2.647,0.737h-1.426v1.396h1.407
		c2.721,0,4.083,0.866,4.083,2.599c0,1.933-1.234,2.899-3.703,2.899c-0.625,0-1.287-0.08-1.987-0.238
		c-0.7-0.16-1.359-0.393-1.977-0.699v1.543c0.592,0.287,1.202,0.487,1.831,0.601c0.628,0.114,1.319,0.171,2.075,0.171
		c1.738,0,3.079-0.365,4.023-1.099c0.943-0.732,1.416-1.779,1.416-3.139c0-0.951-0.277-1.72-0.83-2.306s-1.403-0.951-2.549-1.094
		v-0.078c0.938-0.194,1.662-0.582,2.173-1.162c0.511-0.579,0.767-1.325,0.767-2.235C79.106,102.898,78.723,102.027,77.954,101.393
		 M59.854,102.325c0.478,0.332,0.851,0.788,1.118,1.367c0.267,0.58,0.4,1.211,0.4,1.896c0,0.455-0.143,0.892-0.429,1.308
		c-0.287,0.417-0.679,0.746-1.177,0.987c-0.498,0.24-1.043,0.36-1.636,0.36c-0.957,0-1.67-0.269-2.138-0.806
		c-0.469-0.537-0.704-1.274-0.704-2.212c0-1.067,0.254-1.901,0.762-2.5c0.508-0.599,1.227-0.898,2.158-0.898
		C58.827,101.827,59.375,101.993,59.854,102.325 M62.427,103.365c-0.391-0.954-0.949-1.68-1.675-2.178
		c-0.726-0.498-1.574-0.747-2.544-0.747c-1.354,0-2.446,0.43-3.276,1.289c-0.83,0.86-1.245,2.032-1.245,3.516
		c0,1.354,0.371,2.409,1.113,3.164c0.742,0.755,1.745,1.134,3.008,1.134c0.742,0,1.409-0.143,2.002-0.426
		c0.592-0.282,1.068-0.694,1.426-1.234h0.117c-0.072,1.998-0.506,3.48-1.304,4.447c-0.797,0.968-1.977,1.45-3.54,1.45
		c-0.664,0-1.256-0.084-1.777-0.254v1.397c0.442,0.13,1.041,0.194,1.797,0.194c4.322,0,6.484-2.793,6.484-8.379
		C63.013,105.444,62.818,104.319,62.427,103.365 M51.577,113.42h-7.343v-0.078l3.125-3.058c1.393-1.354,2.343-2.474,2.851-3.358
		c0.508-0.887,0.762-1.781,0.762-2.687c0-1.159-0.381-2.082-1.143-2.769c-0.761-0.687-1.813-1.03-3.154-1.03
		c-1.549,0-2.982,0.547-4.297,1.641l0.86,1.104c0.651-0.514,1.241-0.869,1.772-1.064c0.531-0.194,1.092-0.293,1.685-0.293
		c0.82,0,1.461,0.224,1.924,0.669c0.462,0.446,0.693,1.051,0.693,1.812c0,0.541-0.091,1.045-0.274,1.514
		c-0.182,0.469-0.455,0.951-0.82,1.445c-0.365,0.495-1.12,1.322-2.266,2.48l-3.759,3.779v1.397h9.384V113.42z M36.983,102.325
		c0.478,0.332,0.851,0.788,1.118,1.367c0.267,0.58,0.4,1.211,0.4,1.896c0,0.455-0.143,0.892-0.429,1.308
		c-0.287,0.417-0.679,0.746-1.177,0.987c-0.498,0.24-1.044,0.36-1.636,0.36c-0.957,0-1.67-0.269-2.139-0.806
		c-0.468-0.537-0.703-1.274-0.703-2.212c0-1.067,0.254-1.901,0.762-2.5s1.227-0.898,2.158-0.898
		C35.956,101.827,36.504,101.993,36.983,102.325 M39.556,103.365c-0.391-0.954-0.949-1.68-1.675-2.178s-1.574-0.747-2.544-0.747
		c-1.354,0-2.446,0.43-3.276,1.289c-0.83,0.86-1.245,2.032-1.245,3.516c0,1.354,0.371,2.409,1.113,3.164s1.745,1.134,3.008,1.134
		c0.742,0,1.409-0.143,2.002-0.426c0.592-0.282,1.067-0.694,1.426-1.234h0.117c-0.072,1.998-0.507,3.48-1.304,4.447
		c-0.798,0.968-1.977,1.45-3.54,1.45c-0.664,0-1.257-0.084-1.777-0.254v1.397c0.442,0.13,1.041,0.194,1.797,0.194
		c4.322,0,6.484-2.793,6.484-8.379C40.142,105.444,39.947,104.319,39.556,103.365"/>
	<path fill="#FFFFFF" d="M108.032,75.646l-5.322,14.277h1.621l5.322-14.277H108.032z M93.516,77.34
		c0.473,0.388,0.708,0.91,0.708,1.568c0,0.599-0.193,1.123-0.581,1.571c-0.388,0.449-1.047,0.869-1.978,1.261
		c-1.035-0.431-1.745-0.86-2.129-1.289c-0.384-0.431-0.576-0.944-0.576-1.543c0-0.651,0.231-1.172,0.693-1.563
		c0.463-0.391,1.1-0.586,1.914-0.586C92.394,76.759,93.044,76.953,93.516,77.34 M89.155,84.508c0.436-0.504,1.139-0.965,2.109-1.382
		c1.264,0.463,2.148,0.938,2.656,1.431s0.762,1.054,0.762,1.686c0,0.794-0.271,1.419-0.811,1.875
		c-0.54,0.455-1.296,0.683-2.266,0.683c-0.983,0-1.746-0.218-2.29-0.654c-0.543-0.436-0.815-1.045-0.815-1.825
		C88.501,85.617,88.719,85.013,89.155,84.508 M88.516,76.364c-0.765,0.614-1.147,1.439-1.147,2.475c0,0.729,0.195,1.389,0.586,1.979
		c0.391,0.589,1.035,1.137,1.934,1.645c-1.991,0.912-2.988,2.185-2.988,3.819c0,1.224,0.41,2.169,1.23,2.837
		c0.82,0.667,1.992,1.001,3.517,1.001c1.438,0,2.57-0.354,3.397-1.061s1.24-1.651,1.24-2.837c0-0.801-0.244-1.505-0.732-2.114
		c-0.488-0.608-1.312-1.189-2.471-1.742c0.957-0.477,1.654-1.003,2.09-1.582c0.437-0.58,0.654-1.222,0.654-1.924
		c0-1.068-0.381-1.905-1.143-2.511s-1.794-0.908-3.096-0.908C90.304,75.44,89.281,75.748,88.516,76.364 M84.81,88.419h-7.344v-0.078
		l3.125-3.056c1.394-1.355,2.344-2.475,2.852-3.36c0.508-0.885,0.762-1.78,0.762-2.685c0-1.159-0.381-2.082-1.143-2.77
		c-0.762-0.687-1.813-1.03-3.154-1.03c-1.549,0-2.982,0.548-4.297,1.641l0.859,1.104c0.651-0.514,1.241-0.869,1.772-1.064
		s1.092-0.293,1.685-0.293c0.82,0,1.461,0.224,1.924,0.669c0.463,0.446,0.693,1.05,0.693,1.812c0,0.54-0.091,1.045-0.272,1.515
		c-0.184,0.468-0.456,0.949-0.821,1.444c-0.364,0.495-1.12,1.322-2.266,2.48l-3.76,3.78v1.396h9.385V88.419z M67.314,88.234
		c-0.478-0.34-0.848-0.799-1.108-1.378c-0.26-0.579-0.391-1.204-0.391-1.875c0-0.455,0.145-0.895,0.435-1.318
		c0.29-0.423,0.679-0.755,1.167-0.996c0.488-0.24,1.025-0.361,1.611-0.361c0.944,0,1.654,0.271,2.129,0.812
		c0.475,0.54,0.713,1.281,0.713,2.226c0,1.101-0.255,1.942-0.766,2.525c-0.512,0.582-1.229,0.874-2.154,0.874
		C68.338,88.742,67.793,88.572,67.314,88.234 M65.454,88.453c0.866,1.11,2.038,1.666,3.516,1.666c1.38,0,2.475-0.425,3.286-1.275
		c0.81-0.85,1.216-2.017,1.216-3.501c0-1.328-0.37-2.379-1.109-3.154c-0.739-0.774-1.749-1.161-3.032-1.161
		c-1.549,0-2.682,0.56-3.398,1.679h-0.118c0.079-2.044,0.521-3.543,1.329-4.497c0.807-0.953,1.975-1.43,3.505-1.43
		c0.645,0,1.218,0.081,1.719,0.243v-1.396c-0.423-0.123-1.002-0.186-1.738-0.186c-2.136,0-3.749,0.695-4.839,2.086
		c-1.091,1.39-1.636,3.487-1.636,6.294C64.155,85.799,64.588,87.344,65.454,88.453 M60.249,76.393
		c-0.768-0.635-1.846-0.952-3.232-0.952c-0.847,0-1.652,0.133-2.417,0.396c-0.765,0.264-1.441,0.627-2.027,1.089l0.821,1.094
		c0.709-0.456,1.341-0.768,1.894-0.938c0.553-0.169,1.143-0.254,1.768-0.254c0.82,0,1.469,0.199,1.948,0.596
		c0.478,0.397,0.718,0.944,0.718,1.641c0,0.872-0.326,1.555-0.977,2.047c-0.651,0.49-1.533,0.736-2.646,0.736h-1.426v1.397h1.406
		c2.721,0,4.082,0.865,4.082,2.597c0,1.935-1.234,2.901-3.701,2.901c-0.625,0-1.288-0.08-1.987-0.24
		c-0.7-0.159-1.359-0.392-1.978-0.698v1.543c0.592,0.287,1.203,0.487,1.831,0.602c0.628,0.112,1.32,0.171,2.075,0.171
		c1.739,0,3.08-0.367,4.024-1.1c0.944-0.732,1.416-1.778,1.416-3.14c0-0.95-0.277-1.719-0.83-2.304
		c-0.554-0.586-1.403-0.951-2.549-1.095v-0.077c0.937-0.196,1.662-0.583,2.173-1.162c0.511-0.58,0.766-1.325,0.766-2.237
		C61.401,77.897,61.017,77.028,60.249,76.393 M43.511,78.239c0.488-0.941,1.266-1.412,2.334-1.412c1.08,0,1.863,0.477,2.348,1.431
		c0.485,0.954,0.728,2.456,0.728,4.507s-0.243,3.557-0.728,4.518c-0.485,0.96-1.268,1.439-2.348,1.439
		c-1.068,0-1.846-0.474-2.334-1.421c-0.489-0.947-0.733-2.459-0.733-4.536S43.022,79.179,43.511,78.239 M49.375,77.306
		c-0.804-1.256-1.981-1.885-3.53-1.885c-1.589,0-2.771,0.602-3.545,1.807c-0.775,1.204-1.162,3.051-1.162,5.537
		c0,2.409,0.4,4.237,1.201,5.483c0.801,1.247,1.969,1.871,3.506,1.871c1.601,0,2.791-0.609,3.569-1.827
		c0.778-1.217,1.167-3.061,1.167-5.527C50.581,80.382,50.179,78.562,49.375,77.306"/>
</g>
<polygon fill="#00323C" points="74.221,63.118 66.447,63.118 66.447,63.883 75.779,63.883 83.553,63.883 83.553,63.118 "/>
<g>
	<path fill="#00323C" d="M108.22,48.774v-0.999h-6.173v9.098h6.343v-0.986h-5.305v-3.122h4.589v-0.999h-4.589v-2.992H108.22z
		 M97.847,56.873v-9.098h-1.025v7.317l-5.462-7.317h-1.077v9.098h1.038v-7.305l5.462,7.305H97.847z M86.094,47.775h-1.037v9.098
		h1.037V47.775z M80.854,56.873v-9.098h-1.276l-3.312,6.55l-3.328-6.55h-1.285v9.098h0.986v-7.501l3.301,6.539h0.624l3.312-6.539
		l0.014,7.501H80.854z M61.863,53v-4.227h2.418c1.652,0,2.588,0.702,2.588,2.081c0,1.417-0.936,2.146-2.588,2.146H61.863z
		 M66.778,56.873h1.182l-2.131-3.094c1.313-0.428,2.04-1.442,2.04-2.95c0-1.938-1.312-3.054-3.588-3.054h-3.457v9.098h1.039V54
		h2.418c0.209,0,0.417-0.013,0.612-0.026L66.778,56.873z M57.105,48.774v-0.999h-6.173v9.098h6.342v-0.986H51.97v-3.122h4.589
		v-0.999H51.97v-2.992H57.105z M47.992,48.774v-0.999h-6.979v0.999h2.964v8.099h1.038v-8.099H47.992z"/>
	<path fill="none" stroke="#00323C" d="M72.914,22.886c-1.046-2.055-1.461-3.9-3.316-2.81c-0.94,0.441-6.234,4.631,1.164,12.029
		c7.398,7.398,11.589,2.104,12.029,1.164c1.09-1.855-0.755-2.27-2.81-3.316c-2.056-1.046-2.237,1.766-3.664,1.444
		c-0.419-0.098-1.622-1.06-2.725-2.122c-1.062-1.103-2.024-2.306-2.122-2.725C71.148,25.123,73.96,24.941,72.914,22.886z"/>
</g>
</svg>
