<?xml version="1.0" encoding="utf-8"?>
<!-- Generator: Adobe Illustrator 15.1.0, SVG Export Plug-In . SVG Version: 6.00 Build 0)  -->
<!DOCTYPE svg PUBLIC "-//W3C//DTD SVG 1.1//EN" "http://www.w3.org/Graphics/SVG/1.1/DTD/svg11.dtd">
<svg version="1.1" id="Ebene_1" xmlns="http://www.w3.org/2000/svg" xmlns:xlink="http://www.w3.org/1999/xlink" x="0px" y="0px"
	 width="200px" height="54px" viewBox="0 0 200 54" enable-background="new 0 0 200 54" xml:space="preserve">
<g>
	<path fill="#8F8778" d="M200,33.097v-1.864h-13.378v1.864h5.647v17.654h2.083V33.097H200z M181.14,36.688
		c0,2.385-1.617,3.563-3.893,3.563h-5.208v-7.154h5.208C179.522,33.097,181.14,34.302,181.14,36.688 M183.606,50.751l-4.633-8.854
		c2.522-0.521,4.249-2.386,4.249-5.236c0-3.372-2.385-5.428-5.784-5.428h-7.483v19.519h2.084v-8.663h4.687l4.441,8.663H183.606z
		 M164.938,50.751v-1.865h-10.034v-7.045h8.554v-1.863h-8.554v-6.881h10.034v-1.864h-12.117v19.519H164.938z M146.681,50.751V31.232
		h-2.083V46.83l-10.362-15.598h-1.974v19.519h2.083V35.098l10.363,15.653H146.681z M126.395,44.309V31.232h-2.083v12.912
		c0,2.961-1.892,4.906-4.743,4.906c-2.851,0-4.715-1.945-4.715-4.906V31.232h-2.083v13.076c0,3.893,2.852,6.606,6.798,6.606
		C123.517,50.915,126.395,48.201,126.395,44.309 M105.561,36.688c0,2.385-1.617,3.563-3.893,3.563h-5.208v-7.154h5.208
		C103.943,33.097,105.561,34.302,105.561,36.688 M108.027,50.751l-4.633-8.854c2.522-0.521,4.25-2.386,4.25-5.236
		c0-3.372-2.385-5.428-5.785-5.428h-7.484v19.519h2.084v-8.663h4.687l4.442,8.663H108.027z M88.976,43.623v-3.098h-6.881v1.837
		h4.798v1.479c0,1.509-0.302,2.577-1.097,3.537c-0.905,1.097-2.275,1.672-3.701,1.672c-1.288,0-2.522-0.493-3.372-1.37
		c-1.233-1.262-1.37-2.604-1.37-6.689c0-4.084,0.137-5.4,1.37-6.661c0.85-0.877,2.084-1.397,3.372-1.397
		c2.44,0,4.194,1.507,4.743,3.975h2.083c-0.576-3.427-3.098-5.839-6.826-5.839c-1.946,0-3.673,0.712-4.989,2.028
		c-1.837,1.837-1.837,3.756-1.837,7.895c0,4.14,0,6.059,1.837,7.895c1.316,1.316,3.07,2.029,4.989,2.029
		c2.001,0,3.838-0.768,5.209-2.248C88.51,47.379,88.976,45.871,88.976,43.623"/>
	<path fill="#8F8778" d="M184.21,17.964c0-1.617-0.575-2.961-1.645-3.865c-0.823-0.713-1.727-1.097-3.564-1.371l-2.138-0.329
		c-1.015-0.165-2.029-0.548-2.632-1.069c-0.604-0.521-0.877-1.289-0.877-2.248c0-2.166,1.508-3.619,4.112-3.619
		c2.056,0,3.344,0.576,4.551,1.672l1.343-1.343c-1.672-1.508-3.317-2.138-5.812-2.138c-3.865,0-6.25,2.193-6.25,5.51
		c0,1.563,0.492,2.769,1.479,3.646c0.85,0.74,2.056,1.234,3.591,1.48l2.276,0.357c1.425,0.219,1.919,0.384,2.549,0.932
		c0.631,0.548,0.932,1.425,0.932,2.44c0,2.275-1.754,3.618-4.604,3.618c-2.193,0-3.701-0.521-5.319-2.138l-1.425,1.426
		c1.837,1.836,3.756,2.576,6.689,2.576C181.523,23.501,184.21,21.391,184.21,17.964 M166.665,16.895V3.818h-2.084V16.73
		c0,2.961-1.891,4.907-4.741,4.907c-2.852,0-4.716-1.946-4.716-4.907V3.818h-2.084v13.077c0,3.893,2.852,6.606,6.8,6.606
		C163.786,23.501,166.665,20.788,166.665,16.895 M148.161,17.69h-2.084c-0.52,2.385-2.248,3.947-4.687,3.947
		c-1.289,0-2.522-0.493-3.372-1.37c-1.234-1.261-1.371-2.605-1.371-6.689c0-4.085,0.137-5.428,1.371-6.689
		c0.85-0.877,2.083-1.371,3.372-1.371c2.438,0,4.111,1.563,4.633,3.948h2.138c-0.658-3.674-3.262-5.812-6.771-5.812
		c-1.919,0-3.674,0.713-4.99,2.029c-1.836,1.836-1.836,3.755-1.836,7.895c0,4.139,0,6.058,1.836,7.895
		c1.316,1.316,3.071,2.028,4.99,2.028C144.871,23.501,147.53,21.363,148.161,17.69 M127.82,9.274c0,2.385-1.617,3.564-3.893,3.564
		h-5.208V5.683h5.208C126.203,5.683,127.82,6.889,127.82,9.274 M130.287,23.337l-4.633-8.855c2.523-0.52,4.25-2.385,4.25-5.236
		c0-3.372-2.385-5.428-5.785-5.428h-7.483v19.519h2.084v-8.663h4.688l4.441,8.663H130.287z M108.274,17.114h-7.292l3.674-10.307
		L108.274,17.114z M112.661,23.337l-7.154-19.519h-1.756l-7.182,19.519h2.22l1.563-4.414h8.524l1.563,4.414H112.661z M92.731,23.337
		V3.818h-2.083l-6.196,13.844l-6.36-13.844h-2.083v19.519h2.083V8.506l5.428,11.761h1.782l5.346-11.761v14.831H92.731z"/>
	<path fill="#8F8778" d="M51.523,27.118c0,13.609-11.033,24.643-24.642,24.643c-13.609,0-24.641-11.033-24.641-24.643
		c0-13.609,11.032-24.642,24.641-24.642C40.491,2.477,51.523,13.509,51.523,27.118 M53.764,27.118
		c0-14.846-12.035-26.882-26.882-26.882C12.036,0.236,0,12.272,0,27.118C0,41.965,12.036,54,26.881,54
		C41.729,54,53.764,41.965,53.764,27.118"/>
	<path fill="#8F8778" d="M36.983,31.58v-4.792H26.861v1.983h7.891v2.644c0,2.521-0.496,4.214-1.776,5.825
		c-1.529,1.859-3.801,2.85-6.115,2.85c-2.107,0-4.09-0.784-5.577-2.271c-2.107-2.107-2.272-4.42-2.272-10.7
		c0-6.279,0.165-8.593,2.272-10.7c1.487-1.487,3.47-2.272,5.577-2.272c3.966,0,6.941,2.52,7.808,6.61H36.9
		c-0.867-5.164-4.916-8.593-10.039-8.593c-2.809,0-5.412,1.074-7.353,3.016c-2.686,2.685-2.727,5.288-2.727,11.939
		c0,6.61,0.041,9.254,2.727,11.94c1.941,1.94,4.544,3.015,7.353,3.015c2.975,0,5.784-1.239,7.726-3.387
		C36.363,36.827,36.983,34.678,36.983,31.58"/>
</g>
</svg>
